<svg id="visual" viewBox="0 0 900 300" width="900" height="300" xmlns="http://www.w3.org/2000/svg" xmlns:xlink="http://www.w3.org/1999/xlink" version="1.1"><rect x="0" y="0" width="900" height="300" fill="#202731"></rect><path d="M0 187L21.5 185.2C43 183.3 86 179.7 128.8 183C171.7 186.3 214.3 196.7 257.2 203.8C300 211 343 215 385.8 211C428.7 207 471.3 195 514.2 195.5C557 196 600 209 642.8 210.2C685.7 211.3 728.3 200.7 771.2 198.8C814 197 857 204 878.5 207.5L900 211L900 301L878.5 301C857 301 814 301 771.2 301C728.3 301 685.7 301 642.8 301C600 301 557 301 514.2 301C471.3 301 428.7 301 385.8 301C343 301 300 301 257.2 301C214.3 301 171.7 301 128.8 301C86 301 43 301 21.5 301L0 301Z" fill="#fa7268"></path><path d="M0 219L21.5 220.7C43 222.3 86 225.7 128.8 225.8C171.7 226 214.3 223 257.2 220.2C300 217.3 343 214.7 385.8 216.5C428.7 218.3 471.3 224.7 514.2 223.5C557 222.3 600 213.7 642.8 214.5C685.7 215.3 728.3 225.7 771.2 229C814 232.3 857 228.7 878.5 226.8L900 225L900 301L878.5 301C857 301 814 301 771.2 301C728.3 301 685.7 301 642.8 301C600 301 557 301 514.2 301C471.3 301 428.7 301 385.8 301C343 301 300 301 257.2 301C214.3 301 171.7 301 128.8 301C86 301 43 301 21.5 301L0 301Z" fill="#ef5f67"></path><path d="M0 231L21.5 233.7C43 236.3 86 241.7 128.8 240.8C171.7 240 214.3 233 257.2 233.7C300 234.3 343 242.7 385.8 241.7C428.7 240.7 471.3 230.3 514.2 226.7C557 223 600 226 642.8 230.3C685.7 234.7 728.3 240.3 771.2 239.3C814 238.3 857 230.7 878.5 226.8L900 223L900 301L878.5 301C857 301 814 301 771.2 301C728.3 301 685.7 301 642.8 301C600 301 557 301 514.2 301C471.3 301 428.7 301 385.8 301C343 301 300 301 257.2 301C214.3 301 171.7 301 128.8 301C86 301 43 301 21.5 301L0 301Z" fill="#e34c67"></path><path d="M0 251L21.5 252.8C43 254.7 86 258.3 128.8 257C171.7 255.7 214.3 249.3 257.2 246.3C300 243.3 343 243.7 385.8 248C428.7 252.3 471.3 260.7 514.2 262C557 263.3 600 257.7 642.8 256.5C685.7 255.3 728.3 258.7 771.2 259.7C814 260.7 857 259.3 878.5 258.7L900 258L900 301L878.5 301C857 301 814 301 771.2 301C728.3 301 685.7 301 642.8 301C600 301 557 301 514.2 301C471.3 301 428.7 301 385.8 301C343 301 300 301 257.2 301C214.3 301 171.7 301 128.8 301C86 301 43 301 21.5 301L0 301Z" fill="#d53867"></path><path d="M0 277L21.5 277.5C43 278 86 279 128.8 278.3C171.7 277.7 214.3 275.3 257.2 272.5C300 269.7 343 266.3 385.8 266.5C428.7 266.7 471.3 270.3 514.2 271.7C557 273 600 272 642.8 273.7C685.7 275.3 728.3 279.7 771.2 279.3C814 279 857 274 878.5 271.5L900 269L900 301L878.5 301C857 301 814 301 771.2 301C728.3 301 685.7 301 642.8 301C600 301 557 301 514.2 301C471.3 301 428.7 301 385.8 301C343 301 300 301 257.2 301C214.3 301 171.7 301 128.8 301C86 301 43 301 21.5 301L0 301Z" fill="#c62368"></path></svg>