<svg id="visual" viewBox="0 0 900 300" width="900" height="300" xmlns="http://www.w3.org/2000/svg" xmlns:xlink="http://www.w3.org/1999/xlink" version="1.1"><rect x="0" y="0" width="900" height="300" fill="#FA7268"></rect><path d="M0 81L21.5 80.3C43 79.7 86 78.3 128.8 84.5C171.7 90.7 214.3 104.3 257.2 105.7C300 107 343 96 385.8 94.2C428.7 92.3 471.3 99.7 514.2 98.5C557 97.3 600 87.7 642.8 89.3C685.7 91 728.3 104 771.2 106C814 108 857 99 878.5 94.5L900 90L900 0L878.5 0C857 0 814 0 771.2 0C728.3 0 685.7 0 642.8 0C600 0 557 0 514.2 0C471.3 0 428.7 0 385.8 0C343 0 300 0 257.2 0C214.3 0 171.7 0 128.8 0C86 0 43 0 21.5 0L0 0Z" fill="#fa7268"></path><path d="M0 81L21.5 78.2C43 75.3 86 69.7 128.8 71.5C171.7 73.3 214.3 82.7 257.2 88.3C300 94 343 96 385.8 95.3C428.7 94.7 471.3 91.3 514.2 85.2C557 79 600 70 642.8 69.5C685.7 69 728.3 77 771.2 82.3C814 87.7 857 90.3 878.5 91.7L900 93L900 0L878.5 0C857 0 814 0 771.2 0C728.3 0 685.7 0 642.8 0C600 0 557 0 514.2 0C471.3 0 428.7 0 385.8 0C343 0 300 0 257.2 0C214.3 0 171.7 0 128.8 0C86 0 43 0 21.5 0L0 0Z" fill="#ef5f67"></path><path d="M0 72L21.5 70.3C43 68.7 86 65.3 128.8 66.2C171.7 67 214.3 72 257.2 75C300 78 343 79 385.8 75.7C428.7 72.3 471.3 64.7 514.2 60.3C557 56 600 55 642.8 57.8C685.7 60.7 728.3 67.3 771.2 67.3C814 67.3 857 60.7 878.5 57.3L900 54L900 0L878.5 0C857 0 814 0 771.2 0C728.3 0 685.7 0 642.8 0C600 0 557 0 514.2 0C471.3 0 428.7 0 385.8 0C343 0 300 0 257.2 0C214.3 0 171.7 0 128.8 0C86 0 43 0 21.5 0L0 0Z" fill="#e34c67"></path><path d="M0 38L21.5 40.2C43 42.3 86 46.7 128.8 47.5C171.7 48.3 214.3 45.7 257.2 43C300 40.3 343 37.7 385.8 36.7C428.7 35.7 471.3 36.3 514.2 39.2C557 42 600 47 642.8 45.7C685.7 44.3 728.3 36.7 771.2 36.3C814 36 857 43 878.5 46.5L900 50L900 0L878.5 0C857 0 814 0 771.2 0C728.3 0 685.7 0 642.8 0C600 0 557 0 514.2 0C471.3 0 428.7 0 385.8 0C343 0 300 0 257.2 0C214.3 0 171.7 0 128.8 0C86 0 43 0 21.5 0L0 0Z" fill="#d53867"></path><path d="M0 21L21.5 21.8C43 22.7 86 24.3 128.8 26C171.7 27.7 214.3 29.3 257.2 28C300 26.7 343 22.3 385.8 21.5C428.7 20.7 471.3 23.3 514.2 23.7C557 24 600 22 642.8 23.3C685.7 24.7 728.3 29.3 771.2 29.8C814 30.3 857 26.7 878.5 24.8L900 23L900 0L878.5 0C857 0 814 0 771.2 0C728.3 0 685.7 0 642.8 0C600 0 557 0 514.2 0C471.3 0 428.7 0 385.8 0C343 0 300 0 257.2 0C214.3 0 171.7 0 128.8 0C86 0 43 0 21.5 0L0 0Z" fill="#c62368"></path></svg>